<svg xmlns="http://www.w3.org/2000/svg" width="30" height="20" viewBox="0 0 30 20">
  <path id="Email_Icon" data-name="Email Icon" d="M.072,22.3V5.839q0-.029.087-.543l9.807,8.286L.188,22.868A2.4,2.4,0,0,1,.072,22.3Zm1.3-18.143a1.261,1.261,0,0,1,.492-.086H28.278a1.657,1.657,0,0,1,.521.086l-9.836,8.314-1.3,1.029-2.575,2.086L12.512,13.5l-1.3-1.029ZM1.4,23.982l9.865-9.343L15.086,17.7l3.819-3.057,9.865,9.343a1.4,1.4,0,0,1-.492.086H1.866a1.325,1.325,0,0,1-.463-.086Zm18.8-10.4L29.985,5.3a1.686,1.686,0,0,1,.087.543V22.3a2.165,2.165,0,0,1-.087.571Z" transform="translate(-0.072 -4.068)" fill="#fff"/>
</svg>
