<?xml version="1.0" encoding="utf-8"?>
<!-- Generator: Adobe Illustrator 16.0.0, SVG Export Plug-In . SVG Version: 6.00 Build 0)  -->
<!DOCTYPE svg PUBLIC "-//W3C//DTD SVG 1.0//EN" "http://www.w3.org/TR/2001/REC-SVG-20010904/DTD/svg10.dtd">
<svg version="1.0" id="Layer_1" xmlns="http://www.w3.org/2000/svg" xmlns:xlink="http://www.w3.org/1999/xlink" x="0px" y="0px"
	 width="94.016px" height="93.867px" viewBox="0 0 94.016 93.867" enable-background="new 0 0 94.016 93.867" xml:space="preserve">
<g>
	<path display="none" fill-rule="evenodd" clip-rule="evenodd" fill="#FEFEFE" d="M-13.014,106.874c0-39.952,0-79.912,0-119.915
		c39.971,0,79.942,0,119.957,0c0,39.929,0,79.9,0,119.915C67.015,106.874,27.043,106.874-13.014,106.874z M62.605,15.653
		c-0.139-1.789-0.507-3.201-1.795-4.353c-3.876-3.463-7.675-7.012-11.507-10.523c-1.396-1.28-2.342-0.977-2.794,0.885
		c-0.066,0.271-0.126,0.545-0.175,0.821c-1.307,7.396-2.61,14.792-3.917,22.188c-2.288,12.94-4.577,25.881-6.866,38.821
		c-0.814,4.603-1.644,9.202-2.435,13.809c-0.31,1.805-0.126,3.543,1.308,4.87c4.05,3.746,8.124,7.467,12.203,11.182
		c0.922,0.839,1.728,0.639,2.216-0.509c0.153-0.363,0.238-0.763,0.308-1.154c1.926-10.854,3.841-21.711,5.766-32.566
		c2.057-11.603,4.123-23.204,6.181-34.807C61.618,21.368,62.124,18.417,62.605,15.653z M73.901,13.34c0,0.138,0,0.276,0,0.414
		c-2.558,0-5.115-0.043-7.67,0.031c-0.612,0.018-1.386,0.284-1.748,0.717c-0.194,0.232,0.216,1.142,0.543,1.612
		c2.595,3.733,5.222,7.445,7.872,11.138c0.713,0.993,0.912,2.056,0.583,3.171c-0.256,0.866-0.642,1.715-1.091,2.5
		c-5.182,9.051-10.388,18.087-15.581,27.131c-0.58,1.01-0.341,1.512,0.813,1.68c0.51,0.073,1.038,0.05,1.556,0.035
		c4.396-0.129,8.789-0.326,13.185-0.378c2.689-0.031,4.497-1.243,5.792-3.524c3.517-6.196,7.084-12.364,10.63-18.545
		c1.524-2.659,3.073-5.305,4.556-7.987c0.941-1.704,0.947-3.339-0.293-5.02c-2.628-3.562-5.169-7.19-7.682-10.835
		c-1.032-1.497-2.39-2.152-4.154-2.144C78.775,13.349,76.338,13.34,73.901,13.34z M25.512,36.814
		c0.205-0.379,0.347-0.661,0.504-0.934c3.994-6.933,8.008-13.855,11.957-20.814c0.393-0.692,0.768-1.83,0.461-2.361
		c-0.3-0.519-1.488-0.735-2.281-0.724c-4.436,0.062-8.869,0.244-13.304,0.361c-2.178,0.058-3.825,1.035-4.962,2.847
		c-0.888,1.416-1.69,2.884-2.524,4.333c-4.331,7.521-8.677,15.033-12.977,22.571c-0.858,1.503-1.3,3.128-0.168,4.732
		c2.735,3.879,5.516,7.727,8.222,11.625c0.881,1.269,2.044,1.946,3.517,1.92c5.234-0.094,10.469-0.229,15.7-0.424
		c1.725-0.064,2.044-0.807,1.075-2.196c-1.91-2.739-3.843-5.462-5.793-8.229c1.822-1.535,3.596-3.017,5.355-4.516
		c1.93-1.644,1.901-2.718-0.073-4.324C28.674,39.423,27.139,38.151,25.512,36.814z M12.236,63.488
		c0.659,1.042,1.387,2.045,1.964,3.128c1.987,3.732,1.871,7.571-0.449,10.097c-1.995,2.172-4.377,3.894-7.304,4.584
		c-1.217,0.287-2.535,0.332-3.784,0.226c-0.867-0.072-1.437,0.036-1.878,0.781C0.586,82.641,0.319,82.938,0,83.363
		c0.673,0.369,1.273,0.759,1.92,1.041c2.55,1.112,5.216,1.084,7.893,0.67c5.212-0.805,10.11-2.381,14.045-6.111
		c3.326-3.152,5.299-7.147,6.826-11.378c0.468-1.296,0.83-2.684,0.916-4.05c0.107-1.698-0.893-2.51-2.574-2.456
		c-4.195,0.133-8.391,0.354-12.587,0.361C14.627,61.443,13.133,61.714,12.236,63.488z"/>
	<path fill-rule="evenodd" clip-rule="evenodd" fill="#010101" d="M62.605,15.653c-0.481,2.764-0.987,5.715-1.51,8.664
		c-2.058,11.603-4.124,23.204-6.181,34.807c-1.925,10.855-3.84,21.712-5.766,32.566c-0.069,0.392-0.154,0.791-0.308,1.154
		c-0.488,1.147-1.294,1.348-2.216,0.509c-4.08-3.715-8.153-7.436-12.203-11.182c-1.434-1.327-1.618-3.065-1.308-4.87
		c0.791-4.606,1.621-9.206,2.435-13.809c2.289-12.94,4.579-25.881,6.866-38.821c1.308-7.396,2.611-14.792,3.917-22.188
		c0.049-0.275,0.109-0.549,0.175-0.821c0.453-1.862,1.398-2.165,2.795-0.885c3.832,3.511,7.631,7.06,11.507,10.523
		C62.099,12.452,62.467,13.864,62.605,15.653z"/>
	<path fill-rule="evenodd" clip-rule="evenodd" fill="#010101" d="M73.901,13.34c2.437,0,4.874,0.008,7.311-0.003
		c1.765-0.008,3.122,0.646,4.154,2.144c2.513,3.645,5.054,7.273,7.682,10.835c1.24,1.68,1.234,3.316,0.293,5.02
		c-1.482,2.682-3.031,5.328-4.556,7.987c-3.546,6.181-7.113,12.349-10.63,18.545c-1.295,2.281-3.103,3.493-5.792,3.524
		c-4.396,0.052-8.789,0.249-13.185,0.378c-0.518,0.015-1.046,0.038-1.556-0.035c-1.154-0.168-1.394-0.67-0.813-1.68
		c5.193-9.044,10.399-18.08,15.581-27.131c0.449-0.786,0.835-1.634,1.091-2.5c0.329-1.115,0.13-2.179-0.583-3.171
		c-2.65-3.693-5.277-7.405-7.872-11.138c-0.327-0.471-0.737-1.38-0.543-1.612c0.362-0.433,1.136-0.699,1.748-0.717
		c2.555-0.074,5.112-0.031,7.67-0.031C73.901,13.616,73.901,13.478,73.901,13.34z"/>
	<path fill-rule="evenodd" clip-rule="evenodd" fill="#010101" d="M25.512,36.814c1.627,1.337,3.162,2.609,4.708,3.868
		c1.974,1.606,2.002,2.68,0.073,4.324c-1.759,1.499-3.533,2.98-5.355,4.516c1.95,2.767,3.884,5.489,5.793,8.229
		c0.969,1.39,0.649,2.132-1.075,2.196c-5.231,0.194-10.466,0.33-15.7,0.424c-1.473,0.026-2.636-0.651-3.517-1.92
		c-2.707-3.898-5.487-7.746-8.222-11.625c-1.131-1.604-0.689-3.229,0.168-4.732c4.3-7.538,8.646-15.051,12.977-22.571
		c0.834-1.448,1.637-2.917,2.524-4.333c1.137-1.812,2.784-2.789,4.962-2.847c4.435-0.118,8.869-0.3,13.304-0.361
		c0.793-0.011,1.981,0.205,2.281,0.724c0.307,0.532-0.068,1.669-0.461,2.361c-3.949,6.959-7.963,13.881-11.957,20.814
		C25.859,36.153,25.716,36.435,25.512,36.814z M28.865,42.86c-2.052-1.659-4.04-3.306-6.087-4.874
		c-0.28-0.214-0.997-0.217-1.283-0.006c-2.104,1.548-4.151,3.176-6.271,4.823c2.057,1.816,4.012,3.512,5.928,5.25
		c0.629,0.572,1.117,0.387,1.657-0.071C24.786,46.305,26.767,44.634,28.865,42.86z"/>
	<path fill-rule="evenodd" clip-rule="evenodd" fill="#020302" d="M12.236,63.488c0.897-1.773,2.391-2.045,4.202-2.048
		c4.196-0.008,8.392-0.229,12.587-0.361c1.682-0.054,2.682,0.758,2.574,2.456c-0.086,1.366-0.448,2.754-0.916,4.05
		c-1.527,4.23-3.5,8.226-6.826,11.378c-3.935,3.73-8.833,5.307-14.045,6.111c-2.677,0.414-5.343,0.442-7.893-0.67
		C1.273,84.122,0.673,83.732,0,83.363c0.319-0.425,0.586-0.722,0.785-1.06c0.441-0.745,1.011-0.854,1.878-0.781
		c1.25,0.106,2.567,0.062,3.784-0.226c2.927-0.69,5.309-2.412,7.304-4.584c2.32-2.525,2.437-6.364,0.449-10.097
		C13.623,65.533,12.896,64.53,12.236,63.488z M25.653,66.51c-2.022,0-3.885,0-5.878,0c0.815,2.96,1.493,5.762,0.424,8.653
		C22.924,72.796,24.252,69.649,25.653,66.51z"/>
	<path fill-rule="evenodd" clip-rule="evenodd" fill="#00FB00" d="M28.865,42.86c-2.099,1.774-4.08,3.445-6.056,5.122
		c-0.54,0.458-1.028,0.644-1.657,0.071c-1.916-1.738-3.871-3.434-5.928-5.25c2.12-1.646,4.167-3.274,6.271-4.823
		c0.286-0.21,1.003-0.208,1.283,0.006C24.826,39.554,26.813,41.201,28.865,42.86z"/>
	<path fill-rule="evenodd" clip-rule="evenodd" fill="#00F600" d="M25.653,66.51c-1.4,3.139-2.729,6.286-5.454,8.653
		c1.068-2.892,0.391-5.693-0.424-8.653C21.768,66.51,23.63,66.51,25.653,66.51z"/>
</g>
</svg>
