<?xml version="1.0" encoding="utf-8"?>
<!-- Generator: Adobe Illustrator 16.0.0, SVG Export Plug-In . SVG Version: 6.00 Build 0)  -->
<!DOCTYPE svg PUBLIC "-//W3C//DTD SVG 1.1//EN" "http://www.w3.org/Graphics/SVG/1.1/DTD/svg11.dtd">
<svg version="1.1" id="Layer_1" xmlns="http://www.w3.org/2000/svg" xmlns:xlink="http://www.w3.org/1999/xlink" x="0px" y="0px"
	 width="121.495px" height="103.039px" viewBox="0 0 121.495 103.039" enable-background="new 0 0 121.495 103.039"
	 xml:space="preserve">
<path fill-rule="evenodd" clip-rule="evenodd" fill="#010101" d="M74.604,19.653c-0.481,2.764-0.987,5.715-1.51,8.664
	c-2.058,11.603-4.124,23.204-6.181,34.807c-1.925,10.855-3.84,21.712-5.766,32.566c-0.069,0.392-0.154,0.791-0.308,1.153
	c-0.488,1.148-1.294,1.349-2.216,0.51c-4.079-3.715-8.153-7.436-12.203-11.182c-1.435-1.327-1.618-3.064-1.308-4.87
	c0.791-4.606,1.621-9.206,2.436-13.809c2.289-12.94,4.578-25.881,6.865-38.821c1.309-7.396,2.611-14.792,3.918-22.188
	c0.049-0.275,0.109-0.549,0.176-0.821c0.452-1.862,1.397-2.165,2.794-0.885c3.832,3.511,7.631,7.06,11.507,10.523
	C74.098,16.452,74.466,17.864,74.604,19.653z"/>
<path fill-rule="evenodd" clip-rule="evenodd" fill="#010101" d="M102.877,15.275c1.765-0.008,3.123,0.646,4.154,2.144
	c2.513,3.645,5.054,7.273,7.682,10.835c1.24,1.68,1.234,3.316,0.293,5.02c-1.482,2.682-3.031,5.328-4.556,7.987
	c-3.546,6.181-7.113,12.349-10.63,18.545c-1.295,2.281-2.809,3.95-5.497,3.981c-4.396,0.052-13.953,0.096-15.156,0.028
	c-1.154-0.168-1.272-0.813-0.692-1.822c5.193-9.044,10.399-18.08,15.581-27.131c0.449-0.786,0.835-1.634,1.091-2.5
	c0.329-1.115,0.13-2.179-0.583-3.171c-2.65-3.693-5.277-7.405-7.872-11.138c-0.327-0.471-0.737-1.38-0.543-1.612
	c0.362-0.433,1.135-1.073,1.747-1.091C90.45,15.274,100.44,15.286,102.877,15.275z"/>
<path fill-rule="evenodd" clip-rule="evenodd" fill="#010101" d="M30.511,38.814c1.626,1.337,3.162,2.609,4.708,3.868
	c1.974,1.606,2.002,2.68,0.073,4.324c-1.759,1.499-3.533,2.98-5.355,4.516c1.95,2.767,3.883,5.489,5.793,8.229
	c0.969,1.39,0.645,2.054-1.075,2.196c-5.114,0.425-10.466,0.33-15.701,0.424c-1.473,0.025-2.636-0.651-3.517-1.92
	c-2.707-3.898-5.487-7.746-8.223-11.625c-1.131-1.604-0.689-3.229,0.168-4.732c4.3-7.538,8.646-15.051,12.977-22.571
	c0.834-1.448,1.637-2.917,2.524-4.333c1.137-1.812,2.783-2.789,4.961-2.847c4.435-0.118,8.869-0.299,13.304-0.361
	c0.793-0.011,1.981,0.205,2.281,0.724c0.308,0.532-0.067,1.669-0.46,2.361c-3.949,6.959-7.963,13.881-11.957,20.814
	C30.858,38.153,30.715,38.435,30.511,38.814z"/>
<path fill-rule="evenodd" clip-rule="evenodd" fill="#010101" d="M17.236,70.488c0.896-1.774,2.391-2.044,4.202-2.047
	c4.196-0.008,8.391-0.229,12.586-0.362c1.682-0.054,2.681,0.759,2.574,2.457c-0.086,1.366-0.449,2.754-0.917,4.05
	c-1.527,4.23-3.5,8.226-6.826,11.377c-3.936,3.729-8.833,5.306-14.044,6.111c-2.677,0.413-5.343,0.441-7.893-0.671
	C6.271,91.121,5.672,90.731,5,90.362c0.319-0.425,0.587-0.722,0.786-1.06c0.44-0.748,1.014-0.851,1.878-0.778
	c1.25,0.104,2.567,0.061,3.784-0.228c2.926-0.69,5.308-2.412,7.303-4.585c2.32-2.525,2.436-6.364,0.449-10.096
	C18.623,72.533,17.896,71.529,17.236,70.488z"/>
<path fill-rule="evenodd" clip-rule="evenodd" fill="#00FB00" d="M33.865,44.86c-2.099,1.774-4.08,3.445-6.056,5.122
	c-0.54,0.458-1.028,0.644-1.657,0.072c-1.916-1.739-3.871-3.435-5.928-5.251c2.121-1.646,4.167-3.274,6.271-4.823
	c0.286-0.21,1.003-0.208,1.283,0.006C29.825,41.554,31.812,43.201,33.865,44.86z"/>
<path fill-rule="evenodd" clip-rule="evenodd" fill="#00FB00" d="M30.65,73.51c-1.4,3.139-2.728,6.285-5.314,8.655
	c0.124-1.44,0.4-2.873,0.327-4.287c-0.073-1.412-0.496-2.806-0.796-4.368C26.768,73.51,28.629,73.51,30.65,73.51z"/>
</svg>
